# Blender v2.78 (sub 0) OBJ File: ''
# www.blender.org
mtllib riverfell_nav.mtl
o Plane_Plane.002
v -27.770981 14.072620 -1.574303
v -16.859505 13.111272 3.176043
v -23.080336 13.955496 -5.205859
v -15.039802 12.606645 -3.408059
v -11.711012 11.670832 4.092790
v -9.153193 11.367253 1.261805
v -27.196863 13.282819 4.369887
v -18.171795 13.111272 6.965004
v -13.984760 11.910259 7.056851
v -7.239394 10.558353 -1.689781
vn 0.0715 0.9962 0.0481
vn 0.1585 0.9856 0.0588
vn 0.1803 0.9836 0.0021
vn 0.1163 0.9931 0.0137
vn 0.2377 0.9701 0.0495
vn 0.2489 0.9679 -0.0333
vn 0.1299 0.9872 0.0928
vn 0.2603 0.9599 0.1042
vn 0.0261 0.9962 0.0828
vn 0.2709 0.9586 -0.0870
usemtl None
s 1
f 1//1 2//2 4//3 3//4
f 4//3 2//2 5//5 6//6
f 5//5 2//2 8//7 9//8
f 2//2 1//1 7//9 8//7
f 4//3 6//6 10//10
