# Blender v2.78 (sub 0) OBJ File: ''
# www.blender.org
mtllib pedestal.mtl
o Cube
v 1.000000 -1.000000 -1.000000
v 1.000000 -1.000000 1.000000
v -1.000000 -1.000000 1.000000
v -1.000000 -1.000000 -1.000000
v -0.000001 0.868943 1.152518
v 0.000000 0.868943 -1.152518
v 0.000000 -1.217994 1.152518
v 0.000000 -1.217994 -1.152519
v 1.000000 0.810763 -1.000000
v 0.999999 0.810763 1.000000
v -1.000000 0.810763 1.000000
v -1.000000 0.810763 -1.000000
v 1.125978 1.148516 -1.125977
v 1.125976 1.148516 1.125978
v -1.125977 1.148516 1.125977
v -1.125977 1.148516 -1.125977
v 1.125978 0.935439 -1.125977
v 1.125976 0.935439 1.125978
v -1.125977 0.935439 1.125977
v -1.125977 0.935439 -1.125977
v 0.000000 1.121058 -1.297709
v -0.000001 1.121058 1.297709
v 0.000000 1.012634 -1.297709
v -0.000001 1.012634 1.297709
v 1.152518 -1.217994 0.000000
v -1.152518 -1.217994 -0.000000
v -1.152519 0.868943 -0.000000
v 1.152518 0.868943 0.000001
v 1.297709 1.121058 0.000001
v -1.297709 1.121058 -0.000000
v -1.297709 1.012634 -0.000000
v 1.297709 1.012634 0.000001
v -0.000000 1.121058 0.000000
v 0.000000 -1.217994 -0.000000
v 1.136533 1.041860 -1.136531
v 1.136531 1.041860 1.136533
v -1.136532 1.041860 1.136531
v -1.136532 1.041860 -1.136532
v 0.000000 1.066962 -1.309874
v -0.000001 1.066962 1.309874
v -1.309874 1.066962 -0.000000
v 1.309874 1.066962 0.000001
vt 0.5205 0.5000
vt 0.3592 0.5000
vt 0.3805 0.3287
vt 0.5205 0.3365
vt 0.6818 0.4427
vt 0.6833 0.4218
vt 0.8409 0.4369
vt 0.8409 0.4476
vt 0.8409 0.4088
vt 0.9809 0.3974
vt 0.9985 0.4218
vt 0.1591 0.9114
vt 0.2991 0.9000
vt 0.3167 0.9244
vt 0.1591 0.9395
vt 0.5205 0.0546
vt 0.3805 0.0841
vt 0.3629 0.0494
vt 0.5205 0.0146
vt 0.8409 0.0000
vt 0.9809 0.0427
vt 0.5205 0.5546
vt 0.3805 0.5841
vt 0.3629 0.5494
vt 0.5205 0.5146
vt 0.6605 0.0841
vt 0.6605 0.3287
vt 0.1591 0.5026
vt 0.0191 0.9000
vt 0.0191 0.5453
vt 0.5205 0.8365
vt 0.6605 0.5841
vt 0.6605 0.8287
vt 0.1796 0.2513
vt 0.0000 0.2896
vt 0.0000 0.0665
vt 0.1522 0.0000
vt 0.5205 0.5056
vt 0.5205 0.5000
vt 0.6781 0.5207
vt 0.6796 0.5336
vt 0.1591 0.9501
vt 0.1591 0.9607
vt 0.0015 0.9661
vt 0.0000 0.9452
vt 0.5205 0.0056
vt 0.5205 0.0000
vt 0.6781 0.0207
vt 0.6796 0.0336
vt 1.0000 0.4427
vt 0.3182 0.9452
vt 0.3167 0.9661
vt 0.3592 0.2130
vt 0.3116 0.0000
vt 0.2991 0.5453
vt 0.7009 0.3974
vt 0.7009 0.0427
vt 0.0015 0.9244
vt 0.6818 1.0000
vt 0.5205 1.0000
vt 0.3805 0.8287
vt 0.3592 1.0000
vt 0.3592 0.4361
vt 0.2070 0.5026
vt 0.3614 0.0336
vt 0.3629 0.0207
vt 0.3614 0.5336
vt 0.3629 0.5207
vt 0.0475 0.5026
vt 0.6781 0.5494
vt 0.6781 0.0494
vt 0.6818 0.5000
vt 0.8409 0.4582
vt 0.9985 0.4635
vt 0.6833 0.4635
vn -0.1077 -0.9883 0.1077
vn 0.1426 -0.1477 -0.9787
vn -0.0589 -0.7231 -0.6882
vn 0.0589 -0.7231 0.6882
vn -0.6882 -0.7231 0.0589
vn -0.1508 0.0000 -0.9886
vn 0.6882 -0.7231 -0.0589
vn -0.9886 -0.0000 -0.1508
vn -0.1508 -0.0000 0.9886
vn 0.9886 0.0000 0.1508
vn 0.0122 0.9999 -0.0122
vn 0.9777 0.1480 0.1490
vn -0.1490 0.1480 0.9777
vn -0.9777 0.1480 -0.1490
vn -0.1426 -0.1477 -0.9787
vn 0.1490 0.1480 0.9777
vn -0.0122 0.9999 -0.0122
vn 0.1508 -0.0000 0.9886
vn 0.1508 0.0000 -0.9886
vn -0.0589 -0.7231 0.6882
vn 0.0589 -0.7231 -0.6882
vn 0.1077 -0.9883 0.1077
vn 0.1077 -0.9883 -0.1077
vn -0.0122 0.9999 0.0122
vn -0.9777 0.1480 0.1490
vn 0.9777 0.1480 -0.1490
vn 0.0122 0.9999 0.0122
vn 0.9886 -0.0000 -0.1508
vn -0.9886 -0.0000 0.1508
vn 0.6882 -0.7231 0.0589
vn -0.6882 -0.7231 -0.0589
vn -0.1077 -0.9883 -0.1077
vn 0.9787 -0.1477 -0.1426
vn -0.9787 -0.1477 0.1426
vn 0.1426 -0.1477 0.9787
vn -0.1490 0.1480 -0.9777
vn -0.9787 -0.1477 -0.1426
vn -0.1426 -0.1477 0.9787
vn 0.9787 -0.1477 0.1426
vn 0.1490 0.1480 -0.9777
usemtl Material
s off
f 34/1/1 7/2/1 3/3/1 26/4/1
f 35/5/2 17/6/2 23/7/2 39/8/2
f 6/9/3 12/10/3 20/11/3 23/7/3
f 5/12/4 10/13/4 18/14/4 24/15/4
f 27/16/5 11/17/5 19/18/5 31/19/5
f 6/9/6 8/20/6 4/21/6 12/10/6
f 28/22/7 9/23/7 17/24/7 32/25/7
f 26/4/8 27/16/8 12/26/8 4/27/8
f 7/28/9 5/12/9 11/29/9 3/30/9
f 25/31/10 28/22/10 10/32/10 2/33/10
f 33/34/11 30/35/11 15/36/11 22/37/11
f 42/38/12 29/39/12 14/40/12 36/41/12
f 40/42/13 22/43/13 15/44/13 37/45/13
f 41/46/14 30/47/14 16/48/14 38/49/14
f 39/8/15 23/7/15 20/11/15 38/50/15
f 36/51/16 14/52/16 22/43/16 40/42/16
f 29/53/17 33/34/17 22/37/17 14/54/17
f 2/55/18 10/13/18 5/12/18 7/28/18
f 9/56/19 1/57/19 8/20/19 6/9/19
f 11/29/20 5/12/20 24/15/20 19/58/20
f 9/56/21 6/9/21 23/7/21 17/6/21
f 25/31/22 2/33/22 7/59/22 34/60/22
f 1/61/23 25/31/23 34/60/23 8/62/23
f 13/63/24 21/64/24 33/34/24 29/53/24
f 37/65/25 15/66/25 30/47/25 41/46/25
f 35/67/26 13/68/26 29/39/26 42/38/26
f 21/64/27 16/69/27 30/35/27 33/34/27
f 1/61/28 9/23/28 28/22/28 25/31/28
f 3/3/29 11/17/29 27/16/29 26/4/29
f 10/32/30 28/22/30 32/25/30 18/70/30
f 12/26/31 27/16/31 31/19/31 20/71/31
f 8/72/32 34/1/32 26/4/32 4/27/32
f 17/24/33 35/67/33 42/38/33 32/25/33
f 19/18/34 37/65/34 41/46/34 31/19/34
f 18/14/35 36/51/35 40/42/35 24/15/35
f 21/73/36 39/8/36 38/50/36 16/74/36
f 31/19/37 41/46/37 38/49/37 20/71/37
f 24/15/38 40/42/38 37/45/38 19/58/38
f 32/25/39 42/38/39 36/41/39 18/70/39
f 13/75/40 35/5/40 39/8/40 21/73/40
